#N canvas 162 305 697 544 12;
#X obj 89 41 inlet;
#X obj 159 41 inlet;
#X obj 231 42 inlet;
#X obj 301 42 inlet;
#X obj 372 42 inlet;
#X obj 443 43 inlet;
#X obj 89 271 outlet~;
#X obj 89 142 pack f f f f f f, f 51;
#X obj 19 20 inlet;
#X obj 89 190 list store;
#X obj 19 45 t b b b;
#X msg 89 215 0 \, \$5 \$1 \, \$6 \$2 \$1 \, 0 \$4 \$3;
#X obj 179 99 expr $f1 + $f2 + $f3;
#X obj 97 66 t b f;
#X obj 165 65 t b f;
#X obj 89 246 vline~;
#X obj 381 262 print env;
#X msg 369 192 0 \, 1 500 2000;
#X connect 0 0 7 0;
#X connect 0 0 13 0;
#X connect 1 0 7 1;
#X connect 1 0 14 0;
#X connect 2 0 12 0;
#X connect 3 0 7 3;
#X connect 4 0 7 4;
#X connect 5 0 7 5;
#X connect 7 0 9 1;
#X connect 8 0 10 0;
#X connect 9 0 11 0;
#X connect 10 0 9 0;
#X connect 10 1 7 0;
#X connect 10 2 9 1;
#X connect 11 0 16 0;
#X connect 11 0 15 0;
#X connect 12 0 7 2;
#X connect 13 0 12 0;
#X connect 13 1 12 1;
#X connect 14 0 12 0;
#X connect 14 1 12 2;
#X connect 15 0 6 0;
#X connect 17 0 15 0;
