#N struct controlpoint float x float y float v1 float v2 float v3 float
v4 float v5 float v6;
#N canvas 469 487 1337 514 12;
#N canvas 796 110 450 302 controlpoint 1;
#X obj 19 199 filledpolygon 0 900 0 -5 -5 -5 5 5 5 5 -5;
#X obj 17 15 struct controlpoint float x float y float v1 float v2
float v3 float v4 float v5 float v6;
#X restore 3 6 pd controlpoint;
#N canvas 676 102 450 300 controldata 1;
#X scalar controlpoint 179 104 0 0 0 0 19 0 \;;
#X scalar controlpoint 53 170 0 0 0 0 0 0 \;;
#X scalar controlpoint 115 186 0 0 0 0 0 0 \;;
#X restore 4 36 pd controldata;
#N canvas 0 61 450 697 generate 0;
#X obj 18 437 outlet;
#X obj 102 23 bng 30 250 50 0 empty empty List 0 -10 0 10 -262144 -1
-1;
#X obj 102 58 t b b b;
#X obj 179 59 s \$0-bang;
#X msg 167 92 traverse pd-controldata;
#X msg 37 96 next;
#X obj 97 136 pointer;
#X obj 97 161 t b p;
#X obj 129 191 get controlpoint x y v1 v2 v3 v4 v5 v6;
#X obj 129 216 pack f f f f f f f f, f 38;
#X obj 129 281 list store;
#X obj 160 242 t l;
#X obj 196 242 r \$0-bang;
#X obj 18 368 list store;
#X obj 85 340 r \$0-bang;
#X obj 104 417 list length;
#X obj 104 442 / 8;
#X obj 104 467 outlet;
#X connect 1 0 2 0;
#X connect 2 0 5 0;
#X connect 2 1 4 0;
#X connect 2 2 3 0;
#X connect 4 0 6 0;
#X connect 5 0 6 0;
#X connect 6 0 7 0;
#X connect 6 1 13 0;
#X connect 7 0 5 0;
#X connect 7 1 8 0;
#X connect 8 0 9 0;
#X connect 8 1 9 1;
#X connect 8 2 9 2;
#X connect 8 3 9 3;
#X connect 8 4 9 4;
#X connect 8 5 9 5;
#X connect 8 6 9 6;
#X connect 8 7 9 7;
#X connect 9 0 10 0;
#X connect 10 0 11 0;
#X connect 10 0 13 1;
#X connect 11 0 10 1;
#X connect 12 0 10 1;
#X connect 13 0 0 0;
#X connect 13 0 15 0;
#X connect 14 0 13 1;
#X connect 15 0 16 0;
#X connect 16 0 17 0;
#X coords 0 -1 1 1 40 50 2 97 7;
#X restore 282 16 pd generate;
#N canvas 1117 169 769 568 Point 0;
#X floatatom 73 27 5 0 0 0 - - -;
#X floatatom 73 55 5 0 0 0 - - -;
#X floatatom 73 83 5 0 0 0 - - -;
#X floatatom 73 111 5 0 0 0 - - -;
#X floatatom 73 139 5 0 0 0 - - -;
#X floatatom 73 167 5 0 0 0 - - -;
#X obj 73 195 bng 15 250 50 0 empty empty Create 17 7 0 14 -262144
-1 -1;
#X obj 218 290 pack f f f f f f f f;
#X msg 73 215 100;
#X obj 502 286 pointer;
#X obj 218 315 append controlpoint x y v1 v2 v3 v4 v5 v6;
#X obj 73 240 t f f b;
#X msg 502 261 traverse pd-controldata \, bang;
#X connect 0 0 7 7;
#X connect 1 0 7 6;
#X connect 2 0 7 5;
#X connect 3 0 7 4;
#X connect 4 0 7 3;
#X connect 5 0 7 2;
#X connect 6 0 8 0;
#X connect 7 0 10 0;
#X connect 8 0 11 0;
#X connect 9 0 10 8;
#X connect 11 0 7 0;
#X connect 11 1 7 1;
#X connect 11 2 12 0;
#X connect 12 0 9 0;
#X coords 0 -1 1 1 85 200 2 70 20;
#X restore 151 13 pd Point;
#X msg 315 78 \$1 8;
#X obj 315 113 list append;
#X obj 315 138 print list;
#X obj 431 176 print result;
#X obj 431 151 weights 0.01;
#X connect 2 0 5 1;
#X connect 2 1 4 0;
#X connect 4 0 5 0;
#X connect 5 0 6 0;
#X connect 5 0 8 0;
#X connect 8 0 7 0;
