#N struct controlpoint float x float y float v0 float v1 float v2 float
v3 float v4 float v5 float v6 float v7 float v8 float v9 float v10
float v11;
#N struct userpoint float x float y;
#N canvas 1002 117 918 501 12;
#N canvas 374 61 450 302 controlpoint 0;
#X obj 19 199 filledpolygon 0 900 0 -5 -5 -5 5 5 5 5 -5;
#X obj 17 15 struct controlpoint float x float y float v0 float v1
float v2 float v3 float v4 float v5 float v6 float v7 float v8 float
v9 float v10 float v11;
#X restore 3 6 pd controlpoint;
#N canvas 547 176 450 300 controldata 1;
#X scalar controlpoint 100 100 0.65 150 30 250 200 120 0.5 100 100
100 130 67 \;;
#X scalar userpoint 83 148 \;;
#X restore 4 75 pd controldata;
#N canvas 242 218 958 697 generate 0;
#X obj 18 437 outlet;
#X obj 102 23 bng 30 250 50 0 empty empty List 0 -10 0 10 -4032 -1
-1;
#X obj 102 58 t b b b;
#X obj 179 59 s \$0-bang;
#X msg 167 92 traverse pd-controldata;
#X msg 37 96 next;
#X obj 97 161 t b p;
#X obj 129 281 list store;
#X obj 174 252 t l;
#X obj 196 242 r \$0-bang;
#X obj 18 368 list store;
#X obj 85 340 r \$0-bang;
#X obj 104 417 list length;
#X obj 104 467 outlet;
#X obj 97 136 pointer controlpoint;
#X obj 165 162 t b;
#X obj 129 191 get controlpoint x y v0 v1 v2 v3 v4 v5 v6 v7 v8 v9 v10
v11;
#X obj 129 216 pack f f f f f f f f f f f f f f, f 58;
#X obj 104 442 / 14;
#X connect 1 0 2 0;
#X connect 2 0 5 0;
#X connect 2 1 4 0;
#X connect 2 2 3 0;
#X connect 4 0 14 0;
#X connect 5 0 14 0;
#X connect 6 0 5 0;
#X connect 6 1 16 0;
#X connect 7 0 8 0;
#X connect 7 0 10 1;
#X connect 8 0 7 1;
#X connect 9 0 7 1;
#X connect 10 0 0 0;
#X connect 10 0 12 0;
#X connect 11 0 10 1;
#X connect 12 0 18 0;
#X connect 14 0 6 0;
#X connect 14 1 15 0;
#X connect 14 2 10 0;
#X connect 15 0 5 0;
#X connect 16 0 17 0;
#X connect 16 1 17 1;
#X connect 16 2 17 2;
#X connect 16 3 17 3;
#X connect 16 4 17 4;
#X connect 16 5 17 5;
#X connect 16 6 17 6;
#X connect 16 7 17 7;
#X connect 16 8 17 8;
#X connect 16 9 17 9;
#X connect 16 10 17 10;
#X connect 16 11 17 11;
#X connect 16 12 17 12;
#X connect 16 13 17 13;
#X connect 17 0 7 0;
#X connect 18 0 13 0;
#X coords 0 -1 1 1 40 50 2 97 7;
#X restore 282 16 pd generate;
#N canvas 1061 118 769 568 Point 0;
#X floatatom 74 114 5 0 0 1 VT_S - -;
#X floatatom 74 142 5 0 0 1 VT_R - -;
#X floatatom 74 170 5 0 0 1 VT_f - -;
#X floatatom 74 226 5 0 0 1 A_A - -;
#X floatatom 74 254 5 0 0 1 A_D - -;
#X floatatom 74 282 5 0 0 1 A_S - -;
#X obj 75 361 bng 15 250 50 0 empty empty Create 17 7 0 14 -262144
-1 -1;
#X msg 73 392 100;
#X obj 543 485 pointer;
#X obj 76 428 t f f b;
#X msg 543 460 traverse pd-controldata \, bang;
#X floatatom 74 310 5 0 0 1 A_R - -;
#X floatatom 74 336 5 0 0 1 A_n - -;
#X floatatom 74 58 5 0 0 1 VT_A - -;
#X floatatom 74 86 5 0 0 1 VT_D - -;
#X obj 259 489 pack f f f f f f f f f f f f f f;
#X floatatom 74 30 5 0 0 1 VT_A - -;
#X floatatom 74 198 5 0 0 1 A_A - -;
#X obj 259 514 append controlpoint x y v0 v1 v2 v3 v4 v5 v6 v7 v8 v9
v10 v11;
#X connect 0 0 15 5;
#X connect 1 0 15 6;
#X connect 2 0 15 7;
#X connect 3 0 15 9;
#X connect 4 0 15 10;
#X connect 5 0 15 11;
#X connect 6 0 7 0;
#X connect 7 0 9 0;
#X connect 8 0 18 14;
#X connect 9 0 15 0;
#X connect 9 1 15 1;
#X connect 9 2 10 0;
#X connect 10 0 8 0;
#X connect 11 0 15 12;
#X connect 12 0 15 13;
#X connect 13 0 15 3;
#X connect 14 0 15 4;
#X connect 15 0 18 0;
#X connect 16 0 15 2;
#X connect 17 0 15 8;
#X coords 0 -1 1 1 85 360 2 70 20;
#X restore 151 13 pd Point;
#X obj 315 113 list append;
#X obj 315 138 print list;
#X obj 332 185 print result;
#X obj 431 151 interpolate 0.01;
#N canvas 94 179 450 300 userpoint 0;
#X obj 22 14 struct userpoint float x float y;
#X obj 20 93 filledpolygon 550 0 0 -5 -5 -5 5 5 5 5 -5;
#X restore 5 38 pd userpoint;
#N canvas 1007 400 450 300 addUP 0;
#X obj 48 33 bng 20 250 50 0 empty empty Re-Add_Point 22 7 0 10 -262130
-1 -1;
#X obj 48 58 t b b;
#X msg 185 94 traverse pd-controldata \, bang;
#X obj 185 119 pointer;
#X msg 48 122 150 150;
#X obj 48 147 append userpoint x y;
#X obj 48 5 inlet;
#X connect 0 0 1 0;
#X connect 1 0 4 0;
#X connect 1 1 2 0;
#X connect 2 0 3 0;
#X connect 3 0 5 2;
#X connect 4 0 5 0;
#X connect 6 0 0 0;
#X coords 0 -1 1 1 110 30 2 40 27;
#X restore 5 438 pd addUP;
#N canvas 896 422 450 300 clearControlPoints 0;
#X obj 27 10 bng 20 250 50 0 empty empty Clear 22 7 0 10 -258113 -1
-1;
#X msg 117 89 \; pd-controldata clear;
#X obj 27 101 outlet;
#X obj 27 42 t b b;
#X connect 0 0 3 0;
#X connect 3 0 2 0;
#X connect 3 1 1 0;
#X coords 0 -1 1 1 80 30 2 20 5;
#X restore 5 395 pd clearControlPoints;
#N canvas 862 573 450 300 getUPoint 0;
#X obj 55 24 bng 30 250 50 0 empty empty Run 32 7 0 10 -4034 -1 -1
;
#X obj 55 59 t b b;
#X obj 54 124 pointer userpoint;
#X msg 113 94 traverse pd-controldata;
#X msg 10 95 next;
#X obj 54 162 get userpoint x y;
#X obj 54 187 pack f f, f 17;
#X obj 205 157 print error;
#X obj 54 212 outlet;
#X connect 0 0 1 0;
#X connect 1 0 4 0;
#X connect 1 1 3 0;
#X connect 2 0 5 0;
#X connect 2 1 4 0;
#X connect 2 2 7 0;
#X connect 3 0 2 0;
#X connect 4 0 2 0;
#X connect 5 0 6 0;
#X connect 5 1 6 1;
#X connect 6 0 8 0;
#X coords 0 -1 1 1 85 40 2 40 20;
#X restore 431 30 pd getUPoint;
#X obj 469 78 unpack f f;
#X floatatom 469 103 5 0 0 0 - - -;
#X floatatom 536 103 5 0 0 0 - - -;
#N canvas 58 334 791 610 player 0;
#X obj 482 93 s \$0-a-note;
#X obj 447 116 s \$0-a-r;
#X obj 412 140 s \$0-a-s;
#X obj 377 162 s \$0-a-d;
#X obj 343 185 s \$0-a-a;
#X obj 273 93 s \$0-vt-f;
#X obj 238 116 s \$0-vt-r;
#X obj 204 140 s \$0-vt-s;
#X obj 169 162 s \$0-vt-d;
#X obj 134 185 s \$0-vt-a;
#X obj 41 16 inlet;
#X obj 41 41 t b l;
#X obj 41 66 s \$0-b;
#X obj 100 67 unpack f f f f f f f f f f f f, f 55;
#X obj 308 209 s \$0-a-amp;
#X obj 100 209 s \$0-vt-amp;
#X obj 27 404 adsr, f 39;
#X obj 72 280 r \$0-vt-a;
#X obj 117 315 r \$0-vt-d;
#X obj 162 342 r \$0-vt-s;
#X obj 207 368 r \$0-vt-r;
#X obj 297 367 r \$0-vt-amp;
#X msg 251 328 1;
#X obj 251 296 loadbang;
#X obj 407 404 adsr, f 39;
#X msg 631 328 1;
#X obj 631 296 loadbang;
#X obj 452 277 r \$0-a-a;
#X obj 497 315 r \$0-a-d;
#X obj 542 342 r \$0-a-s;
#X obj 587 368 r \$0-a-r;
#X obj 677 367 r \$0-a-amp;
#X obj 114 431 r \$0-vt-f;
#X obj 114 456 osc~ 0;
#X obj 456 429 r \$0-a-note;
#X obj 456 452 mtof;
#X obj 456 479 osc~ 0;
#X obj 428 511 *~;
#X obj 428 536 outlet~;
#X obj 68 491 *~;
#X obj 68 516 outlet~;
#X obj 407 371 r \$0-b;
#X obj 27 372 r \$0-b;
#X floatatom 529 486 5 0 0 0 - - -;
#X connect 10 0 11 0;
#X connect 11 0 12 0;
#X connect 11 1 13 0;
#X connect 13 0 15 0;
#X connect 13 1 9 0;
#X connect 13 2 8 0;
#X connect 13 3 7 0;
#X connect 13 4 6 0;
#X connect 13 5 5 0;
#X connect 13 6 14 0;
#X connect 13 7 4 0;
#X connect 13 8 3 0;
#X connect 13 9 2 0;
#X connect 13 10 1 0;
#X connect 13 11 0 0;
#X connect 16 0 39 0;
#X connect 17 0 16 1;
#X connect 18 0 16 2;
#X connect 19 0 16 3;
#X connect 20 0 16 4;
#X connect 21 0 16 6;
#X connect 22 0 16 5;
#X connect 23 0 22 0;
#X connect 24 0 37 0;
#X connect 25 0 24 5;
#X connect 26 0 25 0;
#X connect 27 0 24 1;
#X connect 28 0 24 2;
#X connect 29 0 24 3;
#X connect 30 0 24 4;
#X connect 31 0 24 6;
#X connect 32 0 33 0;
#X connect 33 0 39 1;
#X connect 34 0 35 0;
#X connect 35 0 36 0;
#X connect 35 0 43 0;
#X connect 36 0 37 1;
#X connect 37 0 38 0;
#X connect 39 0 40 0;
#X connect 41 0 24 0;
#X connect 42 0 16 0;
#X restore 431 211 pd player;
#X msg 315 79 \$1 14;
#N canvas 0 50 450 250 (subpatch) 0;
#X array \$0-temp 44100 float 2;
#X coords 0 1 44100 -1 200 140 1;
#X restore 627 56 graph;
#X obj 479 297 tabwrite~ \$0-temp;
#X obj 518 190 t b;
#X obj 416 298 dac~ 3;
#X obj 617 294 dac~ 1 2;
#X connect 2 0 4 1;
#X connect 2 1 16 0;
#X connect 4 0 5 0;
#X connect 4 0 7 1;
#X connect 7 0 6 0;
#X connect 7 0 15 0;
#X connect 7 0 19 0;
#X connect 10 0 9 0;
#X connect 11 0 7 0;
#X connect 11 0 12 0;
#X connect 12 0 13 0;
#X connect 12 1 14 0;
#X connect 15 0 20 0;
#X connect 15 0 18 0;
#X connect 15 1 21 0;
#X connect 15 1 21 1;
#X connect 16 0 4 0;
#X connect 19 0 18 0;
