#N struct userpoint float x float y;
#N canvas 469 434 623 501 12;
#N canvas 374 61 450 302 controlpoint 0;
#X obj 19 199 filledpolygon 0 900 0 -5 -5 -5 5 5 5 5 -5;
#X obj 17 15 struct controlpoint float x float y float v1 float v2
float v3 float v4 float v5 float v6;
#X restore 3 6 pd controlpoint;
#N canvas 1171 61 450 300 controldata 1;
#X scalar userpoint 150 150 \;;
#X restore 4 75 pd controldata;
#N canvas 242 218 450 697 generate 0;
#X obj 18 437 outlet;
#X obj 102 23 bng 30 250 50 0 empty empty List 0 -10 0 10 -4032 -1
-1;
#X obj 102 58 t b b b;
#X obj 179 59 s \$0-bang;
#X msg 167 92 traverse pd-controldata;
#X msg 37 96 next;
#X obj 97 161 t b p;
#X obj 129 191 get controlpoint x y v1 v2 v3 v4 v5 v6;
#X obj 129 216 pack f f f f f f f f, f 38;
#X obj 129 281 list store;
#X obj 160 242 t l;
#X obj 196 242 r \$0-bang;
#X obj 18 368 list store;
#X obj 85 340 r \$0-bang;
#X obj 104 417 list length;
#X obj 104 442 / 8;
#X obj 104 467 outlet;
#X obj 97 136 pointer controlpoint;
#X obj 165 162 t b;
#X connect 1 0 2 0;
#X connect 2 0 5 0;
#X connect 2 1 4 0;
#X connect 2 2 3 0;
#X connect 4 0 17 0;
#X connect 5 0 17 0;
#X connect 6 0 5 0;
#X connect 6 1 7 0;
#X connect 7 0 8 0;
#X connect 7 1 8 1;
#X connect 7 2 8 2;
#X connect 7 3 8 3;
#X connect 7 4 8 4;
#X connect 7 5 8 5;
#X connect 7 6 8 6;
#X connect 7 7 8 7;
#X connect 8 0 9 0;
#X connect 9 0 10 0;
#X connect 9 0 12 1;
#X connect 10 0 9 1;
#X connect 11 0 9 1;
#X connect 12 0 0 0;
#X connect 12 0 14 0;
#X connect 13 0 12 1;
#X connect 14 0 15 0;
#X connect 15 0 16 0;
#X connect 17 0 6 0;
#X connect 17 1 18 0;
#X connect 17 2 12 0;
#X connect 18 0 5 0;
#X coords 0 -1 1 1 40 50 2 97 7;
#X restore 282 16 pd generate;
#N canvas 1061 118 769 568 Point 0;
#X floatatom 73 27 5 0 0 0 - - -;
#X floatatom 73 55 5 0 0 0 - - -;
#X floatatom 73 83 5 0 0 0 - - -;
#X floatatom 73 111 5 0 0 0 - - -;
#X floatatom 73 139 5 0 0 0 - - -;
#X floatatom 73 167 5 0 0 0 - - -;
#X obj 73 195 bng 15 250 50 0 empty empty Create 17 7 0 14 -262144
-1 -1;
#X obj 218 290 pack f f f f f f f f;
#X msg 73 215 100;
#X obj 502 286 pointer;
#X obj 218 315 append controlpoint x y v1 v2 v3 v4 v5 v6;
#X obj 73 240 t f f b;
#X msg 502 261 traverse pd-controldata \, bang;
#X connect 0 0 7 7;
#X connect 1 0 7 6;
#X connect 2 0 7 5;
#X connect 3 0 7 4;
#X connect 4 0 7 3;
#X connect 5 0 7 2;
#X connect 6 0 8 0;
#X connect 7 0 10 0;
#X connect 8 0 11 0;
#X connect 9 0 10 8;
#X connect 11 0 7 0;
#X connect 11 1 7 1;
#X connect 11 2 12 0;
#X connect 12 0 9 0;
#X coords 0 -1 1 1 85 200 2 70 20;
#X restore 151 13 pd Point;
#X msg 315 78 \$1 8;
#X obj 315 113 list append;
#X obj 315 138 print list;
#X obj 431 176 print result;
#X obj 431 151 interpolate 0.01;
#N canvas 94 179 450 300 userpoint 0;
#X obj 22 14 struct userpoint float x float y;
#X obj 20 93 filledpolygon 550 0 0 -5 -5 -5 5 5 5 5 -5;
#X restore 5 38 pd userpoint;
#N canvas 1007 400 450 300 addUP 0;
#X obj 48 33 bng 20 250 50 0 empty empty Re-Add_Point 22 7 0 10 -262130
-1 -1;
#X obj 48 58 t b b;
#X msg 185 94 traverse pd-controldata \, bang;
#X obj 185 119 pointer;
#X msg 48 122 150 150;
#X obj 48 147 append userpoint x y;
#X obj 48 5 inlet;
#X connect 0 0 1 0;
#X connect 1 0 4 0;
#X connect 1 1 2 0;
#X connect 2 0 3 0;
#X connect 3 0 5 2;
#X connect 4 0 5 0;
#X connect 6 0 0 0;
#X coords 0 -1 1 1 110 30 2 40 27;
#X restore 5 438 pd addUP;
#N canvas 896 422 450 300 clearControlPoints 0;
#X obj 27 10 bng 20 250 50 0 empty empty Clear 22 7 0 10 -258113 -1
-1;
#X msg 117 89 \; pd-controldata clear;
#X obj 27 101 outlet;
#X obj 27 42 t b b;
#X connect 0 0 3 0;
#X connect 3 0 2 0;
#X connect 3 1 1 0;
#X coords 0 -1 1 1 80 30 2 20 5;
#X restore 5 395 pd clearControlPoints;
#N canvas 862 573 450 300 getUPoint 0;
#X obj 55 24 bng 30 250 50 0 empty empty Run 32 7 0 10 -4034 -1 -1
;
#X obj 55 59 t b b;
#X obj 54 124 pointer userpoint;
#X msg 113 94 traverse pd-controldata;
#X msg 10 95 next;
#X obj 54 162 get userpoint x y;
#X obj 54 187 pack f f, f 17;
#X obj 205 157 print error;
#X obj 54 212 outlet;
#X connect 0 0 1 0;
#X connect 1 0 4 0;
#X connect 1 1 3 0;
#X connect 2 0 5 0;
#X connect 2 1 4 0;
#X connect 2 2 7 0;
#X connect 3 0 2 0;
#X connect 4 0 2 0;
#X connect 5 0 6 0;
#X connect 5 1 6 1;
#X connect 6 0 8 0;
#X coords 0 -1 1 1 85 40 2 40 20;
#X restore 431 30 pd getUPoint;
#X obj 469 78 unpack f f;
#X floatatom 469 103 5 0 0 0 - - -;
#X floatatom 536 103 5 0 0 0 - - -;
#X connect 2 0 5 1;
#X connect 2 1 4 0;
#X connect 4 0 5 0;
#X connect 5 0 6 0;
#X connect 5 0 8 1;
#X connect 8 0 7 0;
#X connect 11 0 10 0;
#X connect 12 0 8 0;
#X connect 12 0 13 0;
#X connect 13 0 14 0;
#X connect 13 1 15 0;
