#N struct controlpoint float x float y float v0 float v1 float v2 float
v3 float v4 float v5 float v6 float v7 float v8 float v9 float sel
;
#N struct userpoint float x float y;
#N canvas 629 124 1052 677 12;
#N canvas 143 85 450 302 controlpoint 0;
#X obj 17 146 filledpolygon 0 900 0 -5 -5 -5 5 5 5 5 -5;
#X obj 17 191 drawpolygon -v sel 90 2 -10 -10 10 -10 10 10 -10 10 -10
-10;
#X obj 17 15 struct controlpoint float x float y float v0 float v1
float v2 float v3 float v4 float v5 float v6 float v7 float v8 float
v9 float sel;
#X restore 3 6 pd controlpoint;
#N canvas 333 241 456 300 controldata 0;
#X scalar controlpoint 123 70 80 0.75 0.5 50 1 0.7 0.7 0.3 0.25 0.1
0 \;;
#X scalar controlpoint 91 115 80 0.75 0.5 50 1 0.7 0.7 0.3 0.25 0.1
1 \;;
#X scalar controlpoint 93 149 0 0 0 68 0.5 0.4 1.2 0.3 0.1 0 0 \;;
#X scalar userpoint 177 106 \;;
#X restore 4 75 pd controldata;
#N canvas 27 88 958 697 generate 0;
#X obj 18 437 outlet;
#X obj 102 23 bng 30 250 50 0 empty empty List 0 -10 0 10 -4032 -1
-1;
#X obj 102 58 t b b b;
#X obj 179 59 s \$0-bang;
#X msg 167 92 traverse pd-controldata;
#X msg 37 96 next;
#X obj 97 161 t b p;
#X obj 129 281 list store;
#X obj 174 252 t l;
#X obj 196 242 r \$0-bang;
#X obj 18 368 list store;
#X obj 85 340 r \$0-bang;
#X obj 104 417 list length;
#X obj 104 467 outlet;
#X obj 97 136 pointer controlpoint;
#X obj 165 162 t b;
#X obj 104 442 / 12;
#X obj 129 191 get controlpoint x y v0 v1 v2 v3 v4 v5 v6 v7 v8 v9;
#X obj 129 216 pack f f f f f f f f f f f f, f 50;
#X connect 1 0 2 0;
#X connect 2 0 5 0;
#X connect 2 1 4 0;
#X connect 2 2 3 0;
#X connect 4 0 14 0;
#X connect 5 0 14 0;
#X connect 6 0 5 0;
#X connect 6 1 17 0;
#X connect 7 0 8 0;
#X connect 7 0 10 1;
#X connect 8 0 7 1;
#X connect 9 0 7 1;
#X connect 10 0 0 0;
#X connect 10 0 12 0;
#X connect 11 0 10 1;
#X connect 12 0 16 0;
#X connect 14 0 6 0;
#X connect 14 1 15 0;
#X connect 14 2 10 0;
#X connect 15 0 5 0;
#X connect 16 0 13 0;
#X connect 17 0 18 0;
#X connect 17 1 18 1;
#X connect 17 2 18 2;
#X connect 17 3 18 3;
#X connect 17 4 18 4;
#X connect 17 5 18 5;
#X connect 17 6 18 6;
#X connect 17 7 18 7;
#X connect 17 8 18 8;
#X connect 17 9 18 9;
#X connect 17 10 18 10;
#X connect 17 11 18 11;
#X connect 18 0 7 0;
#X coords 0 -1 1 1 40 50 2 97 7;
#X restore 282 16 pd generate;
#N canvas 1061 118 769 568 Point 0;
#X floatatom 74 114 5 0 0 1 A_n - -;
#X floatatom 74 142 5 0 0 1 A_h0 - -;
#X floatatom 74 170 5 0 0 1 A_h1 - -;
#X floatatom 74 226 5 0 0 1 A_h3 - -;
#X floatatom 74 254 5 0 0 1 A_h4 - -;
#X floatatom 74 282 5 0 0 1 A_h5 - -;
#X obj 73 307 bng 15 250 50 0 empty empty Create 17 7 0 14 -262144
-1 -1;
#X msg 73 392 100;
#X obj 543 485 pointer;
#X obj 76 428 t f f b;
#X msg 543 460 traverse pd-controldata \, bang;
#X floatatom 74 58 5 0 0 1 VT_A - -;
#X floatatom 74 86 5 0 0 1 VT_pos - -;
#X floatatom 74 30 5 0 0 1 VT_f - -;
#X floatatom 74 198 5 0 0 1 A_h2 - -;
#X obj 259 489 pack f f f f f f f f f f f f;
#X obj 259 514 append controlpoint x y v0 v1 v2 v3 v4 v5 v6 v7 v8 v9
;
#X connect 0 0 15 5;
#X connect 1 0 15 6;
#X connect 2 0 15 7;
#X connect 3 0 15 9;
#X connect 4 0 15 10;
#X connect 5 0 15 11;
#X connect 6 0 7 0;
#X connect 7 0 9 0;
#X connect 8 0 16 12;
#X connect 9 0 15 0;
#X connect 9 1 15 1;
#X connect 9 2 10 0;
#X connect 10 0 8 0;
#X connect 11 0 15 3;
#X connect 12 0 15 4;
#X connect 13 0 15 2;
#X connect 14 0 15 8;
#X connect 15 0 16 0;
#X coords 0 -1 1 1 85 310 2 70 20;
#X restore 151 13 pd Point;
#X obj 315 113 list append;
#X obj 315 138 print list;
#X obj 332 185 print result;
#X obj 431 151 interpolate 0.01;
#N canvas 94 179 450 300 userpoint 0;
#X obj 22 14 struct userpoint float x float y;
#X obj 20 93 filledpolygon 550 0 0 -5 -5 -5 5 5 5 5 -5;
#X restore 5 38 pd userpoint;
#N canvas 1007 400 450 300 addUP 0;
#X obj 48 33 bng 20 250 50 0 empty empty Re-Add_Point 22 7 0 10 -262130
-1 -1;
#X obj 48 58 t b b;
#X msg 185 94 traverse pd-controldata \, bang;
#X obj 185 119 pointer;
#X msg 48 122 150 150;
#X obj 48 147 append userpoint x y;
#X obj 48 5 inlet;
#X connect 0 0 1 0;
#X connect 1 0 4 0;
#X connect 1 1 2 0;
#X connect 2 0 3 0;
#X connect 3 0 5 2;
#X connect 4 0 5 0;
#X connect 6 0 0 0;
#X coords 0 -1 1 1 110 30 2 40 27;
#X restore 5 438 pd addUP;
#N canvas 896 422 450 300 clearControlPoints 0;
#X obj 27 10 bng 20 250 50 0 empty empty Clear 22 7 0 10 -258113 -1
-1;
#X msg 117 89 \; pd-controldata clear;
#X obj 27 101 outlet;
#X obj 27 42 t b b;
#X connect 0 0 3 0;
#X connect 3 0 2 0;
#X connect 3 1 1 0;
#X coords 0 -1 1 1 80 30 2 20 5;
#X restore 5 395 pd clearControlPoints;
#N canvas 862 573 450 300 getUPoint 0;
#X obj 55 24 bng 30 250 50 0 empty empty Run 32 7 0 10 -4034 -1 -1
;
#X obj 55 59 t b b;
#X obj 54 124 pointer userpoint;
#X msg 113 94 traverse pd-controldata;
#X msg 10 95 next;
#X obj 54 162 get userpoint x y;
#X obj 54 187 pack f f, f 17;
#X obj 205 157 print error;
#X obj 54 212 outlet;
#X msg 183 16 bang;
#X msg 258 11 stop;
#X obj 111 17 bng 15 250 50 0 empty empty Bang 17 7 0 10 -262144 -1
-1;
#X obj 112 45 bng 15 250 50 0 empty empty Stop 17 7 0 10 -262144 -1
-1;
#X obj 197 43 metro 100;
#X connect 0 0 1 0;
#X connect 1 0 4 0;
#X connect 1 1 3 0;
#X connect 2 0 5 0;
#X connect 2 1 4 0;
#X connect 2 2 7 0;
#X connect 3 0 2 0;
#X connect 4 0 2 0;
#X connect 5 0 6 0;
#X connect 5 1 6 1;
#X connect 6 0 8 0;
#X connect 9 0 13 0;
#X connect 10 0 13 0;
#X connect 11 0 9 0;
#X connect 12 0 10 0;
#X connect 13 0 0 0;
#X coords 0 -1 1 1 120 50 2 40 15;
#X restore 431 30 pd getUPoint;
#X obj 469 78 unpack f f;
#X floatatom 469 103 5 0 0 0 - - -;
#X floatatom 536 103 5 0 0 0 - - -;
#N canvas 307 384 791 610 player 1;
#X obj 48 8 inlet;
#X obj 48 33 t b l;
#X obj 48 58 s \$0-b;
#X obj 428 521 outlet~;
#X obj 68 516 outlet~;
#X obj 107 59 unpack f f f f f f f f f f, f 55;
#X obj 107 201 s \$0-vt-f;
#X obj 141 177 s \$0-vt-amp;
#X obj 176 154 s \$0-vt-pos;
#X obj 211 132 s \$0-a-note;
#X obj 245 108 s \$0-a-h0;
#X obj 280 85 s \$0-a-h1;
#X obj 373 173 s \$0-a-h2;
#X obj 408 149 s \$0-a-h3;
#X obj 442 126 s \$0-a-h4;
#X obj 477 104 s \$0-a-h5;
#N canvas 70 511 1721 480 harm 0;
#X obj 17 13 r \$0-a-note;
#X obj 17 38 mtof;
#X floatatom 17 63 5 0 0 0 - - -;
#X obj 17 87 s \$0-freq;
#X obj 14 119 r \$0-freq;
#X obj 14 144 * 1;
#X obj 14 169 osc~;
#X obj 14 194 *~;
#X obj 144 43 expr max(max(max(max(max($f1 \, $f2) \, $f3) \, $f4)
\, $f5) \, $f6);
#X obj 144 68 s \$0-max;
#X obj 628 44 expr min(min(min(min(min($f1 \, $f2) \, $f3) \, $f4)
\, $f5) \, $f6);
#X obj 628 69 s \$0-min;
#X obj 63 169 expr ($f1 - $f2) / $f3;
#X obj 63 144 r \$0-a-h0;
#X obj 138 144 r \$0-min;
#X obj 214 145 r \$0-max;
#X obj 287 123 r \$0-freq;
#X obj 287 173 osc~;
#X obj 287 198 *~;
#X obj 336 173 expr ($f1 - $f2) / $f3;
#X obj 411 148 r \$0-min;
#X obj 487 149 r \$0-max;
#X obj 566 126 r \$0-freq;
#X obj 566 176 osc~;
#X obj 566 201 *~;
#X obj 615 176 expr ($f1 - $f2) / $f3;
#X obj 690 151 r \$0-min;
#X obj 766 152 r \$0-max;
#X obj 845 123 r \$0-freq;
#X obj 845 173 osc~;
#X obj 845 198 *~;
#X obj 894 173 expr ($f1 - $f2) / $f3;
#X obj 969 148 r \$0-min;
#X obj 1045 149 r \$0-max;
#X obj 1120 128 r \$0-freq;
#X obj 1120 178 osc~;
#X obj 1120 203 *~;
#X obj 1169 178 expr ($f1 - $f2) / $f3;
#X obj 1244 153 r \$0-min;
#X obj 1320 154 r \$0-max;
#X obj 1401 118 r \$0-freq;
#X obj 1401 168 osc~;
#X obj 1401 193 *~;
#X obj 1450 168 expr ($f1 - $f2) / $f3;
#X obj 1525 143 r \$0-min;
#X obj 1601 144 r \$0-max;
#X obj 288 149 * 2;
#X obj 336 148 r \$0-a-h1;
#X obj 566 151 * 3;
#X obj 615 151 r \$0-a-h2;
#X obj 894 148 r \$0-a-h3;
#X obj 1169 153 r \$0-a-h4;
#X obj 1450 143 r \$0-a-h5;
#X obj 845 148 * 4;
#X obj 1120 153 * 5;
#X obj 1401 143 * 6;
#X obj 149 224 +~;
#X obj 399 281 +~;
#X obj 696 328 +~;
#X obj 968 367 +~;
#X obj 1314 401 +~;
#X floatatom 219 71 5 0 0 0 - - -;
#X floatatom 708 73 5 0 0 0 - - -;
#X obj 144 8 r \$0-a-h0;
#X obj 224 8 r \$0-a-h1;
#X obj 304 10 r \$0-a-h2;
#X obj 386 6 r \$0-a-h3;
#X obj 467 8 r \$0-a-h4;
#X obj 546 10 r \$0-a-h5;
#X obj 627 11 r \$0-a-h0;
#X obj 708 9 r \$0-a-h1;
#X obj 789 8 r \$0-a-h2;
#X obj 870 7 r \$0-a-h3;
#X obj 951 8 r \$0-a-h4;
#X obj 1030 11 r \$0-a-h5;
#X obj 1314 451 outlet~;
#X floatatom 1386 429 5 0 0 0 - - -;
#X obj 1314 426 *~;
#X obj 1347 400 expr 1/($f1 + $f2 + $f3 + $f4 + $f5 + $f6);
#X connect 0 0 1 0;
#X connect 1 0 2 0;
#X connect 2 0 3 0;
#X connect 4 0 5 0;
#X connect 5 0 6 0;
#X connect 6 0 7 0;
#X connect 7 0 56 0;
#X connect 8 0 9 0;
#X connect 8 0 61 0;
#X connect 10 0 11 0;
#X connect 10 0 62 0;
#X connect 12 0 7 1;
#X connect 12 0 78 0;
#X connect 13 0 12 0;
#X connect 14 0 12 1;
#X connect 15 0 12 2;
#X connect 16 0 46 0;
#X connect 17 0 18 0;
#X connect 18 0 56 1;
#X connect 19 0 18 1;
#X connect 19 0 78 1;
#X connect 20 0 19 1;
#X connect 21 0 19 2;
#X connect 22 0 48 0;
#X connect 23 0 24 0;
#X connect 24 0 57 1;
#X connect 25 0 24 1;
#X connect 25 0 78 2;
#X connect 26 0 25 1;
#X connect 27 0 25 2;
#X connect 28 0 53 0;
#X connect 29 0 30 0;
#X connect 30 0 58 1;
#X connect 31 0 30 1;
#X connect 31 0 78 3;
#X connect 32 0 31 1;
#X connect 33 0 31 2;
#X connect 34 0 54 0;
#X connect 35 0 36 0;
#X connect 36 0 59 1;
#X connect 37 0 36 1;
#X connect 37 0 78 4;
#X connect 38 0 37 1;
#X connect 39 0 37 2;
#X connect 40 0 55 0;
#X connect 41 0 42 0;
#X connect 42 0 60 1;
#X connect 43 0 42 1;
#X connect 43 0 78 5;
#X connect 44 0 43 1;
#X connect 45 0 43 2;
#X connect 46 0 17 0;
#X connect 47 0 19 0;
#X connect 48 0 23 0;
#X connect 49 0 25 0;
#X connect 50 0 31 0;
#X connect 51 0 37 0;
#X connect 52 0 43 0;
#X connect 53 0 29 0;
#X connect 54 0 35 0;
#X connect 55 0 41 0;
#X connect 56 0 57 0;
#X connect 57 0 58 0;
#X connect 58 0 59 0;
#X connect 59 0 60 0;
#X connect 60 0 77 0;
#X connect 63 0 8 0;
#X connect 64 0 8 1;
#X connect 65 0 8 2;
#X connect 66 0 8 3;
#X connect 67 0 8 4;
#X connect 68 0 8 5;
#X connect 69 0 10 0;
#X connect 70 0 10 1;
#X connect 71 0 10 2;
#X connect 72 0 10 3;
#X connect 73 0 10 4;
#X connect 74 0 10 5;
#X connect 77 0 75 0;
#X connect 78 0 76 0;
#X connect 78 0 77 1;
#X restore 427 480 pd harm;
#X obj 154 515 outlet~;
#X obj 67 284 r \$0-vt-f;
#X obj 67 309 osc~;
#X obj 187 314 expr sqrt(1-$f1) * $f2 \; sqrt($f1) * $f2;
#X obj 187 254 r \$0-vt-pos;
#X obj 187 279 clip 0 1;
#X obj 345 285 r \$0-vt-amp;
#X obj 69 378 *~;
#X obj 154 422 *~;
#X floatatom 187 354 5 0 0 0 - - -;
#X floatatom 345 354 5 0 0 0 - - -;
#X connect 0 0 1 0;
#X connect 1 0 2 0;
#X connect 1 1 5 0;
#X connect 5 0 6 0;
#X connect 5 1 7 0;
#X connect 5 2 8 0;
#X connect 5 3 9 0;
#X connect 5 4 10 0;
#X connect 5 5 11 0;
#X connect 5 6 12 0;
#X connect 5 7 13 0;
#X connect 5 8 14 0;
#X connect 5 9 15 0;
#X connect 16 0 3 0;
#X connect 18 0 19 0;
#X connect 19 0 24 0;
#X connect 19 0 25 0;
#X connect 20 0 24 1;
#X connect 20 0 26 0;
#X connect 20 1 25 1;
#X connect 20 1 27 0;
#X connect 21 0 22 0;
#X connect 22 0 20 0;
#X connect 23 0 20 1;
#X connect 24 0 4 0;
#X connect 25 0 17 0;
#X restore 431 211 pd player;
#N canvas 0 50 450 250 (subpatch) 0;
#X array \$0-vt 44100 float 2;
#X coords 0 1 44100 -1 200 140 1 0 0;
#X restore 751 55 graph;
#X obj 549 208 t b;
#X obj 313 298 dac~ 3;
#X obj 617 298 dac~ 1 2;
#N canvas 67 126 1146 822 editPoints 0;
#X msg 103 62 traverse pd-controldata;
#X msg 331 67 next;
#X obj 103 109 pointer controlpoint;
#X floatatom 103 183 5 0 0 0 - - -;
#X floatatom 143 183 5 0 0 0 - - -;
#X floatatom 183 183 5 0 0 0 - - -;
#X floatatom 223 183 5 0 0 0 - - -;
#X floatatom 263 183 5 0 0 0 - - -;
#X floatatom 303 183 5 0 0 0 - - -;
#X floatatom 343 183 5 0 0 0 - - -;
#X floatatom 383 183 5 0 0 0 - - -;
#X floatatom 423 183 5 0 0 0 - - -;
#X floatatom 463 183 5 0 0 0 - - -;
#X obj 67 186 bng 20 250 50 0 empty empty Next 0 -5 0 10 -257985 -1
-1;
#X obj 66 252 s \$0-bn;
#X obj 331 29 r \$0-bn;
#X obj 281 108 s \$0-done;
#X obj 36 10 loadbang;
#X obj 103 10 r \$0-done;
#X obj 103 35 t b b;
#X obj 583 151 t b;
#X obj 29 140 s \$0-ptr;
#X obj 593 300 r \$0-ptr;
#X obj 553 350 r \$0-ptr;
#X obj 513 400 r \$0-ptr;
#X obj 473 450 r \$0-ptr;
#X obj 433 500 r \$0-ptr;
#X obj 393 550 r \$0-ptr;
#X obj 353 600 r \$0-ptr;
#X obj 313 650 r \$0-ptr;
#X obj 273 700 r \$0-ptr;
#X obj 233 750 r \$0-ptr;
#X obj 463 326 set controlpoint v9;
#X obj 423 376 set controlpoint v8;
#X obj 383 426 set controlpoint v7;
#X obj 343 476 set controlpoint v6;
#X obj 303 526 set controlpoint v5;
#X obj 263 576 set controlpoint v4;
#X obj 223 626 set controlpoint v3;
#X obj 183 676 set controlpoint v2;
#X obj 143 726 set controlpoint v1;
#X obj 103 776 set controlpoint v0;
#X obj 19 102 t p p;
#X obj 965 125 r \$0-ptr;
#X obj 67 228 t b b;
#X obj 99 272 s \$0-prep;
#X obj 828 126 r \$0-prep;
#X msg 828 152 0;
#X obj 828 176 set controlpoint sel;
#X obj 836 215 r \$0-ptr;
#X obj 836 240 t b p;
#X msg 836 265 1;
#X obj 836 290 set controlpoint sel;
#X obj 19 186 bng 20 250 50 0 empty empty Refresh 0 -5 0 10 -261234
-1 -1;
#X obj 35 397 t b b;
#X obj 66 453 s \$0-prep;
#X obj 35 422 s \$0-done;
#X obj 103 148 get controlpoint v0 v1 v2 v3 v4 v5 v6 v7 v8 v9, f 64
;
#X connect 0 0 2 0;
#X connect 1 0 2 0;
#X connect 2 0 42 0;
#X connect 2 1 20 0;
#X connect 2 2 16 0;
#X connect 3 0 41 0;
#X connect 4 0 40 0;
#X connect 5 0 39 0;
#X connect 6 0 38 0;
#X connect 7 0 37 0;
#X connect 8 0 36 0;
#X connect 9 0 35 0;
#X connect 10 0 34 0;
#X connect 11 0 33 0;
#X connect 12 0 32 0;
#X connect 13 0 44 0;
#X connect 15 0 1 0;
#X connect 17 0 0 0;
#X connect 18 0 19 0;
#X connect 19 0 1 0;
#X connect 19 1 0 0;
#X connect 20 0 1 0;
#X connect 22 0 32 1;
#X connect 23 0 33 1;
#X connect 24 0 34 1;
#X connect 25 0 35 1;
#X connect 26 0 36 1;
#X connect 27 0 37 1;
#X connect 28 0 38 1;
#X connect 29 0 39 1;
#X connect 30 0 40 1;
#X connect 31 0 41 1;
#X connect 42 0 57 0;
#X connect 42 1 21 0;
#X connect 43 0 48 1;
#X connect 44 0 14 0;
#X connect 44 1 45 0;
#X connect 46 0 47 0;
#X connect 47 0 48 0;
#X connect 49 0 50 0;
#X connect 50 0 51 0;
#X connect 50 1 52 1;
#X connect 51 0 52 0;
#X connect 53 0 54 0;
#X connect 54 0 56 0;
#X connect 54 1 55 0;
#X connect 57 0 3 0;
#X connect 57 1 4 0;
#X connect 57 2 5 0;
#X connect 57 3 6 0;
#X connect 57 4 7 0;
#X connect 57 5 8 0;
#X connect 57 6 9 0;
#X connect 57 7 10 0;
#X connect 57 8 11 0;
#X connect 57 9 12 0;
#X coords 0 -1 1 1 500 40 2 15 175;
#X restore 138 417 pd editPoints;
#X obj 366 298 tabwrite~ \$0-vt;
#N canvas 0 50 450 250 (subpatch) 0;
#X array \$0-audio 44100 float 2;
#X coords 0 1 44100 -1 200 140 1 0 0;
#X restore 751 233 graph;
#X obj 479 298 tabwrite~ \$0-audio;
#X msg 315 79 \$1 12;
#X obj 345 333 dac~ 4;
#X obj 676 122 vsl 15 128 0 1 0 0 empty empty Volume 0 -9 0 10 -262144
-1 -1 0 1;
#X obj 617 262 *~;
#X connect 2 0 4 1;
#X connect 2 1 24 0;
#X connect 4 0 5 0;
#X connect 4 0 7 1;
#X connect 7 0 6 0;
#X connect 7 0 15 0;
#X connect 7 0 17 0;
#X connect 10 0 9 0;
#X connect 11 0 7 0;
#X connect 11 0 12 0;
#X connect 12 0 13 0;
#X connect 12 1 14 0;
#X connect 15 0 18 0;
#X connect 15 0 21 0;
#X connect 15 1 25 0;
#X connect 15 2 23 0;
#X connect 15 2 27 0;
#X connect 17 0 21 0;
#X connect 17 0 23 0;
#X connect 24 0 4 0;
#X connect 26 0 27 1;
#X connect 27 0 19 0;
#X connect 27 0 19 1;
